# xmcd
#
# Track frame offsets:
#	150
#	18021
#	36139
#	54423
#	89467
#	116438
#	139602
#	166613
#	190830
#	211980
#
# Disc length: 3278 seconds
#
# Revision: 0
# Processed by: cddbd v1.5.2PL0 Copyright (c) Steve Scherf et al.
# Submitted via: EZCDAudioConverter 1.3.4.1
#
DISCID=750ccc0a
DTITLE=Robert Plant - Pictures At Eleven
DYEAR=2006
DGENRE=
TTITLE0=Burning Down One Side
TTITLE1=Moonlight In Samosa
TTITLE2=Pledge Pin
TTITLE3=Slow Dancer
TTITLE4=Worse Than Detroit
TTITLE5=Fat Lip
TTITLE6=Like I've Never Been Gone
TTITLE7=Mystery Title
TTITLE8=Far Post
TTITLE9=Like I've Never Been Gone [Live]
EXTD=
EXTT0=
EXTT1=
EXTT2=
EXTT3=
EXTT4=
EXTT5=
EXTT6=
EXTT7=
EXTT8=
EXTT9=
PLAYORDER=
